<svg width="35" height="35" viewBox="0 0 27 26" fill="none" xmlns="http://www.w3.org/2000/svg">
<path d="M19.8 6.0667H21.6M8.1 0.866699H18.9C22.8764 0.866699 26.1 3.97086 26.1 7.80003V18.2C26.1 22.0292 22.8764 25.1334 18.9 25.1334H8.1C4.12355 25.1334 0.9 22.0292 0.9 18.2V7.80003C0.9 3.97086 4.12355 0.866699 8.1 0.866699ZM13.5 18.2C10.5177 18.2 8.1 15.8719 8.1 13C8.1 10.1282 10.5177 7.80003 13.5 7.80003C16.4823 7.80003 18.9 10.1282 18.9 13C18.9 15.8719 16.4823 18.2 13.5 18.2Z" stroke="black"/>
</svg>
